<svg width="48" height="15" viewBox="0 0 48 15" fill="none" xmlns="http://www.w3.org/2000/svg">
<path d="M47 8.36328C47.5523 8.36328 48 7.91557 48 7.36328C48 6.811 47.5523 6.36328 47 6.36328L47 7.36328L47 8.36328ZM0.292893 6.65617C-0.0976295 7.04669 -0.0976296 7.67986 0.292892 8.07038L6.65685 14.4343C7.04738 14.8249 7.68054 14.8249 8.07107 14.4343C8.46159 14.0438 8.46159 13.4107 8.07107 13.0201L2.41422 7.36328L8.07107 1.70642C8.46159 1.3159 8.46159 0.682734 8.07107 0.29221C7.68054 -0.0983144 7.04738 -0.0983144 6.65685 0.29221L0.292893 6.65617ZM47 7.36328L47 6.36328L1 6.36328L1 7.36328L1 8.36328L47 8.36328L47 7.36328Z" fill="#3A2A2A"/>
</svg>
