<svg width="82" height="23" viewBox="0 0 82 23" fill="none" xmlns="http://www.w3.org/2000/svg">
<path d="M1.5 9.54688C0.671573 9.54688 0 10.2184 0 11.0469C0 11.8753 0.671573 12.5469 1.5 12.5469V11.0469V9.54688ZM81.5607 12.1075C82.1464 11.5217 82.1464 10.572 81.5607 9.98621L72.0147 0.440273C71.4289 -0.145514 70.4792 -0.145514 69.8934 0.440273C69.3076 1.02606 69.3076 1.97581 69.8934 2.56159L78.3787 11.0469L69.8934 19.5322C69.3076 20.1179 69.3076 21.0677 69.8934 21.6535C70.4792 22.2393 71.4289 22.2393 72.0147 21.6535L81.5607 12.1075ZM1.5 11.0469V12.5469H80.5V11.0469V9.54688H1.5V11.0469Z" fill="#F5F2F0"/>
</svg>
