<svg width="59" height="49" viewBox="0 0 59 49" fill="none" xmlns="http://www.w3.org/2000/svg">
<g clip-path="url(#clip0_304_557)">
<path d="M49.3036 36.4246C49.2883 35.8178 49.226 34.2359 48.1429 32.7462C47.2927 31.5751 46.2286 31.0339 45.3016 30.5628C44.0664 29.938 42.7213 29.5504 41.3385 29.4209C41.9824 29.1921 42.6107 28.9227 43.2194 28.6145C44.7456 27.8426 46.1555 27.1293 47.1817 25.6245C47.5517 25.0816 48.346 23.8821 48.2873 22.2114C48.2517 21.271 47.9596 20.3572 47.4416 19.5658C46.5391 18.2012 45.2231 17.6733 44.1752 17.2537C42.7383 16.6788 41.4675 16.5874 40.287 16.5013C39.5679 16.4489 38.8463 16.4409 38.1262 16.4774C37.591 15.914 34.7569 13.0456 30.1511 12.8966C25.0877 12.7333 21.8908 15.9867 21.4152 16.4871C20.1917 16.3589 18.9561 16.3953 17.7426 16.5954C16.4366 16.811 14.4166 17.1445 12.7 18.5623C11.3759 19.6554 10.6629 21.0376 10.2757 22.2203C9.96856 23.1778 9.8136 24.1761 9.81625 25.1801C9.80903 27.2969 9.77202 29.0252 9.73772 30.2283C9.63664 33.8198 9.73772 34.7584 9.81805 36.5621C9.86769 37.633 10.1358 39.5875 11.5194 41.3824C13.3308 43.7326 15.9555 44.3829 17.4231 44.7458C18.8218 45.0903 20.2684 45.2084 21.7058 45.0954C22.6 45.9661 23.6344 46.6856 24.7673 47.2247C26.4025 47.9721 28.1872 48.3502 29.9905 48.331C30.8262 48.3248 32.3913 48.2991 34.2388 47.5485C35.6052 46.9917 36.8374 46.159 37.8554 45.1042C38.3417 45.1386 38.8296 45.1454 39.3167 45.1246C40.7247 45.0634 43.983 44.9215 46.521 42.5668C46.9786 42.1427 49.3921 39.8067 49.3036 36.4246ZM22.3845 39.356C21.7014 36.8487 21.3844 34.2588 21.4431 31.6638C19.9454 31.2628 18.3686 31.2426 16.8608 31.6053C16.8445 35.8622 18.0892 40.0317 20.4431 43.6049C19.9015 43.6049 17.9908 43.5507 16.2804 42.1489C14.1757 40.4251 14.0015 37.9985 13.9789 37.5851C13.8697 35.2854 13.8164 32.8695 13.839 30.3463C13.857 28.2268 13.9293 26.1853 14.0385 24.2245C14.1134 23.1661 14.4049 21.4955 15.5196 19.8967C16.0178 19.1816 16.5945 18.3778 17.7011 17.9288C18.5129 17.6126 19.402 17.541 20.2554 17.723C19.5914 18.5788 19.0168 19.4981 18.5405 20.4672C17.4831 22.6429 16.923 25.0198 16.8996 27.4309C18.408 27.6088 19.9323 27.6153 21.4422 27.4504C21.3464 24.5677 21.966 21.7053 23.2474 19.1106C23.6084 19.5542 25.3828 21.8406 24.8485 24.7364C24.7357 25.3451 24.4081 27.1248 22.9116 28.1487C21.8339 28.886 20.5866 28.9312 19.0847 28.9862C18.3221 29.0133 17.5585 28.9738 16.803 28.8682V30.1298C18.1873 29.8918 19.6076 29.9523 20.9657 30.3073C21.9883 30.5788 23.9803 31.1058 25.2682 32.9041C26.0155 33.9466 26.1888 34.9447 26.3513 35.8745C26.5138 36.8043 27.0634 39.9948 25.0877 42.0318C24.6847 42.4449 24.2104 42.7846 23.6869 43.0353C23.1631 41.8413 22.7278 40.6117 22.3845 39.356ZM41.7293 42.9412C40.6651 43.5969 39.5721 43.722 38.9069 43.7397C39.5315 42.9097 40.0603 42.014 40.4837 41.0692C40.4837 41.0692 41.7897 38.1352 41.4287 34.6342C41.38 34.1622 41.2744 33.5172 40.7807 32.9938C40.6669 32.8722 40.3465 32.5617 39.6425 32.3328C38.1731 31.8555 36.6902 32.2724 36.0268 32.504C36.022 32.5058 36.0179 32.5091 36.0153 32.5135C36.0127 32.5178 36.0117 32.523 36.0124 32.528C36.1108 33.7266 36.1451 34.73 36.1559 35.4611C36.1848 37.4174 36.2001 39.12 35.7155 41.2049C35.562 41.8766 35.3923 42.4133 35.275 42.7638C34.5607 42.3124 33.9354 41.7377 33.4292 41.0674C32.5754 39.9291 32.0754 38.7021 32.0339 38.7376C32.0104 38.7562 32.0285 39.0197 31.9878 39.3711C31.8606 40.481 31.5302 41.5891 30.847 42.3805C30.5481 42.7262 30.1946 43.0225 29.8 43.2579C29.7938 43.2611 29.7885 43.2658 29.7848 43.2717C29.7811 43.2776 29.7792 43.2843 29.7792 43.2912C29.7792 43.2981 29.7811 43.3049 29.7848 43.3108C29.7885 43.3166 29.7938 43.3214 29.8 43.3245C31.2537 43.9778 32.7925 44.4299 34.3724 44.6677C34.1396 45.0723 33.2821 46.4422 31.5357 47.0277C30.1367 47.4979 28.9381 47.2052 28.309 47.0428C26.2755 46.5185 25.0814 45.1513 24.6463 44.5941C25.2429 44.469 28.012 43.8275 29.6448 41.2591C30.8362 39.3853 30.7685 37.515 30.7279 36.6562C30.6827 35.7583 30.5573 33.2617 28.522 31.3444C26.9371 29.8521 25.0633 29.5283 24.3043 29.4413C25.7422 28.8684 26.9532 27.8538 27.7566 26.549C28.4497 25.4044 28.7942 24.0884 28.7494 22.7571C28.7223 22.026 28.6411 20.4663 27.4588 19.0396C26.66 18.094 25.5757 17.4228 24.3629 17.1233C24.6554 16.63 25.6626 15.0773 27.6952 14.3489C28.1971 14.1715 30.5528 13.3978 32.7839 14.7038C33.6847 15.2407 34.4169 16.012 34.8995 16.9325C33.0896 17.27 31.3591 17.9351 29.7964 18.8941C30.2773 19.5647 30.6565 20.3006 30.9219 21.0785C31.2586 22.0713 31.3651 23.0241 31.4472 23.7632C31.477 24.0293 31.3461 24.4029 31.5077 24.4126C31.8055 24.4295 32.3841 22.0606 33.4888 20.6499C34.0929 19.8811 34.79 19.1875 35.5647 18.5845C36.0474 21.0098 36.0932 23.4995 35.7001 25.9404C35.6912 25.9929 35.7018 26.0468 35.73 26.0922C35.7582 26.1377 35.802 26.1716 35.8535 26.1879C36.3951 26.3654 37.8581 26.7203 39.0766 25.9324C40.5586 24.9742 40.583 23.0348 40.5929 22.2585C40.611 20.8309 40.0514 19.6092 39.6904 18.8356C39.5027 18.4276 39.289 18.0317 39.0504 17.6503C39.92 17.6841 40.7616 17.9611 41.4765 18.4488C43.3575 19.7716 43.4089 22.1467 43.3828 22.8609C43.279 25.6033 41.1579 27.2375 40.6931 27.5675C39.592 28.366 38.4547 28.6278 37.8112 28.7768C36.8291 29.0048 35.816 29.0752 34.8111 28.9853L34.793 28.9667C34.6793 27.8786 34.3739 26.8182 33.8905 25.833L33.858 25.8233L31.5862 27.0122L31.5754 27.0397C32.3158 29.0566 32.4413 31.2422 31.9364 33.3282L31.9544 33.3557L34.5484 33.8481L34.5764 33.8295C34.6549 33.4054 34.7217 32.9423 34.7678 32.4508C34.8271 31.8093 34.8473 31.1649 34.8282 30.5211L34.8445 30.4998C35.7826 30.3201 36.7387 30.2472 37.6939 30.2824C38.3374 30.3055 39.0586 30.3321 39.916 30.577C40.4016 30.7163 41.8403 31.1448 42.9477 32.3328C44.4234 33.9165 44.4514 35.9233 44.464 36.8185C44.4695 37.4733 44.5218 41.2209 41.7293 42.9412Z" fill="#3A2A2A"/>
<path d="M44.7754 29.0727C45.5863 29.1842 46.3612 29.4743 47.0421 29.9213C47.7231 30.3684 48.2925 30.9609 48.7079 31.6545L48.6781 25.3074C48.6779 25.3021 48.6759 25.2971 48.6724 25.2931C48.6689 25.2891 48.6641 25.2865 48.6588 25.2855C48.6535 25.2846 48.6481 25.2855 48.6434 25.288C48.6387 25.2905 48.635 25.2945 48.633 25.2994C48.3347 26.1809 47.8303 26.9814 47.1604 27.6367C46.4905 28.292 45.6736 28.7838 44.7754 29.0727Z" fill="#3A2A2A"/>
<path d="M58.6588 15.715L29.5139 0.000675683C29.5103 -0.00105467 29.5063 -0.00195312 29.5022 -0.00195312C29.4982 -0.00195313 29.4941 -0.00105467 29.4905 0.000675683L0.342034 15.715C0.00537598 15.9422 -0.0839783 16.3485 0.0793866 16.6022C0.242751 16.856 0.61461 16.8684 0.636271 16.8684H5.75022V48.2457C5.75022 48.4459 5.83115 48.6379 5.97519 48.7795C6.11924 48.9211 6.3146 49.0007 6.51831 49.0007H17.7806C17.9832 48.9788 18.1704 48.8841 18.3065 48.7349C18.4425 48.5857 18.5177 48.3923 18.5177 48.192C18.5177 47.9916 18.4425 47.7983 18.3065 47.6491C18.1704 47.4998 17.9832 47.4052 17.7806 47.3833H7.40102V16.8711H10.458C10.8588 16.8711 11.1629 16.6049 11.1629 16.2749C11.1629 15.9448 10.8443 15.715 10.458 15.715H3.86927L29.4887 1.62162C29.4922 1.6199 29.496 1.619 29.5 1.619C29.5039 1.619 29.5077 1.6199 29.5112 1.62162L55.1315 15.715H48.5428C48.1556 15.715 47.837 15.9572 47.837 16.2749C47.837 16.5925 48.1421 16.8711 48.5428 16.8711H51.5998V47.3833H41.2203C41.0176 47.4052 40.8304 47.4998 40.6944 47.6491C40.5583 47.7983 40.4831 47.9916 40.4831 48.192C40.4831 48.3923 40.5583 48.5857 40.6944 48.7349C40.8304 48.8841 41.0176 48.9788 41.2203 49.0007H52.4816C52.6853 49.0007 52.8807 48.9211 53.0247 48.7795C53.1688 48.6379 53.2497 48.4459 53.2497 48.2457V16.8711H58.3636C58.3853 16.8711 58.7536 16.8711 58.9214 16.6049C59.0893 16.3387 58.9945 15.9422 58.6588 15.715Z" fill="#3A2A2A"/>
<path d="M14.8496 14.0311L29.4486 6.48269L44.0458 14.0311C44.1336 14.0764 44.2298 14.1037 44.3286 14.1112C44.4274 14.1188 44.5267 14.1065 44.6205 14.0751C44.7143 14.0438 44.8006 13.994 44.8742 13.9287C44.9478 13.8635 45.0072 13.7842 45.0486 13.6957C45.1226 13.5215 45.1264 13.3262 45.0594 13.1493C44.9924 12.9724 44.8595 12.8271 44.6876 12.7429L29.4603 4.86796C29.457 4.86617 29.4533 4.86523 29.4495 4.86523C29.4457 4.86523 29.442 4.86617 29.4387 4.86796L14.1943 12.7491C14.0423 12.8245 13.9211 12.9485 13.8505 13.1008C13.78 13.2531 13.7643 13.4244 13.8062 13.5866C13.8355 13.6898 13.8879 13.7852 13.9595 13.8659C14.0311 13.9467 14.1201 14.0107 14.2201 14.0533C14.3201 14.0959 14.4285 14.116 14.5374 14.1121C14.6463 14.1083 14.7529 14.0806 14.8496 14.0311Z" fill="#3A2A2A"/>
</g>
<defs>
<clipPath id="clip0_304_557">
<rect width="59" height="49" fill="white"/>
</clipPath>
</defs>
</svg>
