<svg width="65" height="54" viewBox="0 0 65 54" fill="none" xmlns="http://www.w3.org/2000/svg">
<g clip-path="url(#clip0_304_379)">
<path d="M54.2637 40.1425C54.2468 39.4737 54.1783 37.7303 52.9862 36.0887C52.0504 34.7981 50.8792 34.2017 49.859 33.6825C48.4995 32.9939 47.0191 32.5668 45.4971 32.4241C46.2058 32.1719 46.8973 31.875 47.5673 31.5353C49.2471 30.6847 50.7988 29.8986 51.9282 28.2403C52.3355 27.642 53.2097 26.32 53.1451 24.4789C53.1059 23.4425 52.7844 22.4355 52.2143 21.5633C51.221 20.0595 49.7726 19.4778 48.6193 19.0153C47.0378 18.3817 45.6391 18.281 44.3398 18.1862C43.5484 18.1284 42.7541 18.1196 41.9616 18.1598C41.3725 17.5389 38.2533 14.3778 33.184 14.2136C27.6111 14.0337 24.0926 17.6191 23.569 18.1705C22.2224 18.0292 20.8625 18.0693 19.5269 18.2898C18.0895 18.5274 15.8663 18.895 13.9769 20.4575C12.5196 21.6621 11.7348 23.1854 11.3087 24.4887C10.9707 25.5439 10.8001 26.6441 10.803 27.7505C10.7951 30.0834 10.7543 31.988 10.7166 33.3139C10.6053 37.2718 10.7166 38.3062 10.805 40.294C10.8596 41.4741 11.1547 43.6281 12.6775 45.6061C14.6713 48.1962 17.56 48.9128 19.1753 49.3127C20.7148 49.6924 22.3069 49.8225 23.8889 49.698C24.8731 50.6576 26.0116 51.4505 27.2585 52.0446C29.0582 52.8683 31.0225 53.2849 33.0072 53.2638C33.9271 53.257 35.6496 53.2286 37.6831 52.4014C39.1869 51.7878 40.5431 50.8701 41.6636 49.7078C42.1988 49.7456 42.7358 49.7531 43.2719 49.7302C44.8216 49.6628 48.4077 49.5063 51.2011 46.9114C51.7047 46.444 54.3611 43.8696 54.2637 40.1425ZM24.6359 43.3729C23.8841 40.6099 23.5352 37.7556 23.5998 34.8959C21.9514 34.4539 20.2159 34.4317 18.5564 34.8313C18.5385 39.5226 19.9085 44.1176 22.4992 48.0554C21.9031 48.0554 19.8001 47.9957 17.9177 46.4509C15.6011 44.5511 15.4094 41.877 15.3845 41.4213C15.2643 38.887 15.2057 36.2246 15.2306 33.4439C15.2504 31.1081 15.3299 28.8583 15.4501 26.6975C15.5325 25.531 15.8534 23.6899 17.0802 21.928C17.6286 21.1399 18.2634 20.2541 19.4813 19.7594C20.3747 19.4109 21.3533 19.3319 22.2925 19.5325C21.5617 20.4756 20.9294 21.4888 20.4051 22.5567C19.2413 24.9544 18.6249 27.5738 18.5991 30.231C20.2593 30.427 21.937 30.4342 23.5988 30.2525C23.4934 27.0756 24.1753 23.9212 25.5856 21.0617C25.983 21.5506 27.936 24.0702 27.3479 27.2616C27.2237 27.9323 26.8631 29.8937 25.2161 31.022C24.03 31.8345 22.6571 31.8844 21.0041 31.945C20.1648 31.9749 19.3244 31.9314 18.4928 31.815V33.2053C20.0164 32.943 21.5796 33.0097 23.0743 33.4009C24.1998 33.7001 26.3922 34.2809 27.8098 36.2628C28.6323 37.4116 28.8231 38.5116 29.0019 39.5362C29.1807 40.5609 29.7857 44.0769 27.6111 46.3218C27.1675 46.7771 26.6456 47.1514 26.0694 47.4276C25.4928 46.1119 25.0138 44.7568 24.6359 43.3729ZM45.9272 47.324C44.756 48.0466 43.553 48.1844 42.8209 48.204C43.5083 47.2892 44.0903 46.3022 44.5563 45.261C44.5563 45.261 45.9938 42.0275 45.5964 38.1694C45.5428 37.6492 45.4265 36.9384 44.8832 36.3615C44.758 36.2276 44.4053 35.8853 43.6305 35.6331C42.0133 35.1071 40.3811 35.5666 39.651 35.8218C39.6457 35.8237 39.6412 35.8274 39.6383 35.8322C39.6354 35.837 39.6343 35.8427 39.6351 35.8482C39.7434 37.1691 39.7811 38.275 39.793 39.0806C39.8248 41.2366 39.8417 43.1128 39.3083 45.4106C39.1394 46.1507 38.9526 46.7422 38.8235 47.1285C38.0373 46.631 37.3491 45.9976 36.792 45.259C35.8523 44.0046 35.3019 42.6523 35.2562 42.6914C35.2304 42.712 35.2503 43.0024 35.2056 43.3896C35.0655 44.6127 34.7019 45.8339 33.9499 46.7061C33.621 47.0871 33.2319 47.4136 32.7976 47.6731C32.7907 47.6765 32.7849 47.6817 32.7809 47.6882C32.7768 47.6947 32.7747 47.7021 32.7747 47.7097C32.7747 47.7173 32.7768 47.7248 32.7809 47.7313C32.7849 47.7377 32.7907 47.743 32.7976 47.7464C34.3975 48.4664 36.0912 48.9645 37.8301 49.2267C37.5738 49.6726 36.6301 51.1822 34.7079 51.8275C33.1681 52.3457 31.8489 52.0231 31.1565 51.8441C28.9184 51.2663 27.6042 49.7596 27.1254 49.1455C27.782 49.0077 30.8297 48.3008 32.6267 45.4702C33.938 43.4052 33.8635 41.3441 33.8188 40.3976C33.7691 39.4082 33.6311 36.6568 31.391 34.5439C29.6466 32.8993 27.5843 32.5424 26.7489 32.4466C28.3315 31.8151 29.6643 30.6971 30.5486 29.2591C31.3114 27.9977 31.6906 26.5474 31.6413 25.0803C31.6115 24.2746 31.5221 22.5557 30.2208 20.9835C29.3416 19.9413 28.1482 19.2017 26.8134 18.8716C27.1353 18.3279 28.2439 16.6169 30.481 15.8141C31.0333 15.6186 33.6261 14.766 36.0817 16.2052C37.0732 16.7969 37.8791 17.647 38.4102 18.6613C36.4181 19.0333 34.5136 19.7663 32.7936 20.8231C33.323 21.5622 33.7403 22.3731 34.0324 23.2304C34.4029 24.3245 34.5201 25.3746 34.6105 26.189C34.6433 26.4823 34.4993 26.894 34.6771 26.9047C35.0049 26.9233 35.6417 24.3127 36.8576 22.7581C37.5224 21.9109 38.2897 21.1465 39.1424 20.4819C39.6736 23.1547 39.724 25.8985 39.2914 28.5884C39.2816 28.6463 39.2933 28.7056 39.3243 28.7557C39.3553 28.8058 39.4035 28.8432 39.4603 28.8612C40.0563 29.0568 41.6666 29.4479 43.0076 28.5796C44.6388 27.5236 44.6656 25.3863 44.6765 24.5308C44.6964 22.9576 44.0805 21.6112 43.6831 20.7586C43.4766 20.309 43.2414 19.8727 42.9788 19.4523C43.9358 19.4896 44.8622 19.7949 45.6491 20.3323C47.7193 21.7901 47.7759 24.4076 47.7471 25.1947C47.6328 28.2169 45.2984 30.0179 44.7868 30.3816C43.5749 31.2616 42.3232 31.55 41.6149 31.7143C40.534 31.9655 39.4189 32.0431 38.3129 31.944L38.293 31.9235C38.1679 30.7244 37.8317 29.5558 37.2996 28.4701L37.2639 28.4593L34.7635 29.7695L34.7516 29.7998C35.5665 32.0226 35.7046 34.4312 35.1489 36.7301L35.1688 36.7604L38.0238 37.3031L38.0546 37.2825C38.141 36.8152 38.2145 36.3048 38.2652 35.7631C38.3306 35.0562 38.3528 34.3461 38.3318 33.6365L38.3496 33.6131C39.3822 33.415 40.4345 33.3347 41.4858 33.3735C42.1941 33.3989 42.9878 33.4283 43.9315 33.6981C44.4659 33.8516 46.0494 34.3239 47.2683 35.6331C48.8925 37.3784 48.9233 39.59 48.9372 40.5766C48.9431 41.2981 49.0007 45.4282 45.9272 47.324Z" fill="#F5F2F0"/>
<path d="M49.2812 32.0393C50.1738 32.1621 51.0266 32.4818 51.7761 32.9745C52.5255 33.4672 53.1522 34.1201 53.6094 34.8845L53.5767 27.8897C53.5764 27.8839 53.5742 27.8784 53.5704 27.874C53.5665 27.8696 53.5612 27.8667 53.5554 27.8656C53.5496 27.8646 53.5436 27.8656 53.5385 27.8683C53.5333 27.8711 53.5292 27.8756 53.527 27.8809C53.1987 28.8524 52.6436 29.7346 51.9062 30.4567C51.1689 31.1789 50.2699 31.7209 49.2812 32.0393Z" fill="#F5F2F0"/>
<path d="M64.5612 17.3188L32.4837 0.000943929C32.4797 -0.000962989 32.4753 -0.00195312 32.4708 -0.00195312C32.4663 -0.00195313 32.4619 -0.000962989 32.4579 0.000943929L0.37645 17.3188C0.00591693 17.5691 -0.0924284 18.0169 0.0873747 18.2966C0.267178 18.5762 0.676453 18.5899 0.700294 18.5899H6.32882V53.1689C6.32882 53.3896 6.41789 53.6012 6.57643 53.7572C6.73497 53.9133 6.94999 54.0009 7.1742 54.0009H19.5697C19.7927 53.9768 19.9988 53.8725 20.1485 53.708C20.2982 53.5436 20.381 53.3305 20.381 53.1097C20.381 52.8889 20.2982 52.6759 20.1485 52.5114C19.9988 52.347 19.7927 52.2427 19.5697 52.2185H8.14573V18.5928H11.5103C11.9514 18.5928 12.2862 18.2995 12.2862 17.9358C12.2862 17.572 11.9355 17.3188 11.5103 17.3188H4.25861L32.4559 1.78729C32.4598 1.78539 32.464 1.78441 32.4683 1.78441C32.4726 1.78441 32.4769 1.78539 32.4807 1.78729L60.679 17.3188H53.4273C53.0011 17.3188 52.6505 17.5857 52.6505 17.9358C52.6505 18.2858 52.9862 18.5928 53.4273 18.5928H56.7919V52.2185H45.3679C45.1449 52.2427 44.9388 52.347 44.7891 52.5114C44.6394 52.6759 44.5566 52.8889 44.5566 53.1097C44.5566 53.3305 44.6394 53.5436 44.7891 53.708C44.9388 53.8725 45.1449 53.9768 45.3679 54.0009H57.7624C57.9866 54.0009 58.2017 53.9133 58.3602 53.7572C58.5187 53.6012 58.6078 53.3896 58.6078 53.1689V18.5928H64.2363C64.2602 18.5928 64.6655 18.5928 64.8502 18.2995C65.035 18.0062 64.9307 17.5691 64.5612 17.3188Z" fill="#F5F2F0"/>
<path d="M16.3436 15.4605L32.4116 7.14188L48.4777 15.4605C48.5742 15.5105 48.6801 15.5405 48.7888 15.5488C48.8976 15.5572 49.0069 15.5436 49.1101 15.5091C49.2134 15.4745 49.3084 15.4196 49.3894 15.3477C49.4704 15.2758 49.5357 15.1885 49.5813 15.091C49.6627 14.899 49.667 14.6837 49.5932 14.4887C49.5194 14.2938 49.3731 14.1337 49.184 14.0409L32.4245 5.36237C32.4209 5.36041 32.4168 5.35938 32.4126 5.35938C32.4084 5.35938 32.4043 5.36041 32.4007 5.36237L15.6224 14.0477C15.4551 14.1308 15.3217 14.2675 15.244 14.4353C15.1664 14.6031 15.1491 14.792 15.1952 14.9707C15.2275 15.0844 15.2851 15.1896 15.3639 15.2785C15.4428 15.3675 15.5408 15.438 15.6508 15.485C15.7608 15.5319 15.8801 15.5541 16 15.5498C16.1199 15.5456 16.2372 15.5151 16.3436 15.4605Z" fill="#F5F2F0"/>
</g>
<defs>
<clipPath id="clip0_304_379">
<rect width="64.9367" height="54" fill="white"/>
</clipPath>
</defs>
</svg>
